<svg id="svg" version="1.1" xmlns="http://www.w3.org/2000/svg" xmlns:xlink="http://www.w3.org/1999/xlink" viewBox="0, 0, 55.2,55.2" class="in-bar-logo">
<g id="svgg">
<path id="path0" d="M3.583 0.121 C 3.400 0.166,3.132 0.326,2.987 0.476 C 2.843 0.627,2.524 0.899,2.279 1.081 C 2.034 1.263,1.833 1.475,1.833 1.551 C 1.833 1.628,1.721 1.803,1.583 1.940 C 1.446 2.078,1.333 2.368,1.333 2.585 C 1.333 2.803,1.258 3.027,1.167 3.083 C 0.949 3.218,0.949 4.833,1.167 4.833 C 1.258 4.833,1.333 5.098,1.333 5.422 C 1.333 5.791,1.426 6.046,1.583 6.106 C 1.721 6.159,1.833 6.333,1.833 6.492 C 1.833 6.808,2.331 7.333,2.630 7.333 C 2.733 7.333,2.877 7.427,2.950 7.542 C 3.316 8.114,7.333 8.534,7.333 8.000 C 7.333 7.908,7.465 7.832,7.625 7.830 C 7.785 7.829,8.093 7.641,8.309 7.414 C 8.525 7.186,8.769 7.000,8.851 7.000 C 8.933 7.000,9.000 6.854,9.000 6.677 C 9.000 6.499,9.075 6.307,9.167 6.250 C 9.258 6.193,9.333 5.964,9.333 5.740 C 9.333 5.484,9.429 5.333,9.592 5.333 C 9.807 5.333,9.845 5.108,9.819 4.000 C 9.795 3.003,9.729 2.667,9.560 2.667 C 9.429 2.667,9.333 2.490,9.333 2.250 C 9.333 2.021,9.258 1.833,9.167 1.833 C 9.075 1.833,9.000 1.697,9.000 1.530 C 9.000 1.240,8.080 0.375,7.518 0.137 C 7.214 0.008,4.092 -0.004,3.583 0.121 M17.000 4.083 L 17.000 8.167 40.833 8.167 L 64.667 8.167 64.667 4.083 L 64.667 0.000 40.833 0.000 L 17.000 0.000 17.000 4.083 M4.167 15.583 C 4.053 15.721,3.776 15.833,3.551 15.833 C 3.129 15.833,2.667 16.176,2.667 16.488 C 2.667 16.586,2.586 16.667,2.488 16.667 C 2.221 16.667,1.833 17.106,1.833 17.410 C 1.833 17.557,1.721 17.720,1.583 17.773 C 1.446 17.826,1.333 18.044,1.333 18.258 C 1.333 18.472,1.258 18.693,1.167 18.750 C 0.950 18.884,0.950 20.449,1.167 20.583 C 1.258 20.640,1.333 20.909,1.333 21.182 C 1.333 21.468,1.439 21.718,1.583 21.773 C 1.721 21.826,1.833 22.011,1.833 22.184 C 1.833 22.358,1.908 22.500,2.000 22.500 C 2.092 22.500,2.167 22.613,2.167 22.750 C 2.167 22.887,2.279 23.000,2.417 23.000 C 2.554 23.000,2.667 23.075,2.667 23.167 C 2.667 23.258,2.809 23.333,2.982 23.333 C 3.156 23.333,3.341 23.446,3.394 23.583 C 3.453 23.739,3.708 23.833,4.068 23.833 C 4.387 23.833,4.698 23.915,4.760 24.016 C 4.940 24.308,7.173 23.921,7.383 23.561 C 7.457 23.436,7.631 23.333,7.771 23.333 C 8.245 23.333,9.333 22.060,9.333 21.507 C 9.333 21.167,9.416 21.000,9.583 21.000 C 9.933 21.000,9.938 18.868,9.589 18.407 C 9.454 18.229,9.342 17.910,9.339 17.698 C 9.336 17.485,9.259 17.360,9.167 17.417 C 9.075 17.473,9.000 17.435,9.000 17.331 C 9.000 17.092,8.580 16.667,8.345 16.667 C 8.247 16.667,8.167 16.586,8.167 16.488 C 8.167 16.218,7.726 15.833,7.417 15.833 C 7.266 15.833,7.030 15.721,6.893 15.583 C 6.720 15.410,6.295 15.333,5.509 15.333 C 4.704 15.333,4.314 15.406,4.167 15.583 M17.112 15.444 C 17.050 15.505,17.000 17.493,17.000 19.862 L 17.000 24.168 40.792 24.126 L 64.583 24.083 64.583 19.750 L 64.583 15.417 40.903 15.374 C 27.879 15.351,17.173 15.382,17.112 15.444 M4.750 31.167 C 4.693 31.258,4.387 31.333,4.068 31.333 C 3.708 31.333,3.453 31.428,3.394 31.583 C 3.341 31.721,3.156 31.833,2.982 31.833 C 2.809 31.833,2.667 31.908,2.667 32.000 C 2.667 32.092,2.554 32.167,2.417 32.167 C 2.279 32.167,2.167 32.279,2.167 32.417 C 2.167 32.554,2.092 32.667,2.000 32.667 C 1.908 32.667,1.833 32.809,1.833 32.982 C 1.833 33.156,1.721 33.341,1.583 33.394 C 1.439 33.449,1.333 33.698,1.333 33.985 C 1.333 34.257,1.258 34.527,1.167 34.583 C 1.075 34.640,1.000 35.052,1.000 35.500 C 1.000 35.948,1.075 36.360,1.167 36.417 C 1.258 36.473,1.333 36.694,1.333 36.906 C 1.333 37.119,1.446 37.386,1.583 37.500 C 1.721 37.614,1.833 37.779,1.833 37.866 C 1.833 38.080,2.267 38.500,2.488 38.500 C 2.586 38.500,2.667 38.580,2.667 38.679 C 2.667 38.983,3.124 39.333,3.530 39.339 C 3.743 39.342,4.062 39.454,4.240 39.589 C 4.670 39.913,6.330 39.913,6.760 39.589 C 6.938 39.454,7.220 39.342,7.387 39.339 C 7.723 39.333,8.167 38.957,8.167 38.679 C 8.167 38.580,8.247 38.500,8.345 38.500 C 8.580 38.500,9.000 38.074,9.000 37.835 C 9.000 37.732,9.075 37.693,9.167 37.750 C 9.259 37.807,9.336 37.681,9.339 37.468 C 9.342 37.257,9.454 36.938,9.589 36.760 C 9.933 36.304,9.929 34.239,9.583 34.106 C 9.446 34.054,9.333 33.818,9.333 33.582 C 9.333 33.097,8.195 31.833,7.758 31.833 C 7.610 31.833,7.446 31.721,7.394 31.583 C 7.340 31.442,7.091 31.333,6.825 31.333 C 6.566 31.333,6.307 31.258,6.250 31.167 C 6.193 31.075,5.856 31.000,5.500 31.000 C 5.144 31.000,4.807 31.075,4.750 31.167 M17.039 35.374 L 17.083 39.750 40.833 39.750 L 64.583 39.750 64.583 35.417 L 64.583 31.083 40.789 31.041 L 16.994 30.999 17.039 35.374 M3.417 47.218 C 2.552 47.735,1.833 48.390,1.833 48.663 C 1.833 48.829,1.721 49.008,1.583 49.060 C 1.426 49.120,1.333 49.375,1.333 49.745 C 1.333 50.068,1.258 50.333,1.167 50.333 C 0.949 50.333,0.949 51.949,1.167 52.083 C 1.258 52.140,1.333 52.364,1.333 52.581 C 1.333 52.798,1.446 53.089,1.583 53.226 C 1.721 53.364,1.833 53.539,1.833 53.615 C 1.833 53.692,2.034 53.903,2.279 54.085 C 2.524 54.268,2.866 54.567,3.039 54.750 C 3.486 55.226,7.590 55.261,7.853 54.792 C 7.943 54.631,8.087 54.500,8.173 54.500 C 8.459 54.500,9.000 53.930,9.000 53.630 C 9.000 53.467,9.075 53.333,9.167 53.333 C 9.258 53.333,9.333 53.146,9.333 52.917 C 9.333 52.677,9.429 52.500,9.560 52.500 C 9.729 52.500,9.795 52.164,9.819 51.167 C 9.845 50.059,9.807 49.833,9.592 49.833 C 9.429 49.833,9.333 49.683,9.333 49.427 C 9.333 49.203,9.258 48.973,9.167 48.917 C 9.075 48.860,9.000 48.668,9.000 48.490 C 9.000 48.312,8.933 48.167,8.851 48.167 C 8.769 48.167,8.525 47.980,8.309 47.753 C 8.093 47.525,7.785 47.338,7.625 47.336 C 7.465 47.335,7.333 47.258,7.333 47.167 C 7.333 46.925,3.832 46.971,3.417 47.218 M17.000 51.083 L 17.000 55.167 40.833 55.167 L 64.667 55.167 64.667 51.083 L 64.667 47.000 40.833 47.000 L 17.000 47.000 17.000 51.083 " stroke="none" fill="#4474bc" fill-rule="evenodd"></path>
</g></svg>